%TF.GenerationSoftware,KiCad,Pcbnew,8.0.7*%
%TF.CreationDate,2025-04-23T11:54:06+05:30*%
%TF.ProjectId,schem,73636865-6d2e-46b6-9963-61645f706362,rev?*%
%TF.SameCoordinates,Original*%
%TF.FileFunction,Soldermask,Top*%
%TF.FilePolarity,Negative*%
%FSLAX46Y46*%
G04 Gerber Fmt 4.6, Leading zero omitted, Abs format (unit mm)*
G04 Created by KiCad (PCBNEW 8.0.7) date 2025-04-23 11:54:06*
%MOMM*%
%LPD*%
G01*
G04 APERTURE LIST*
G04 Aperture macros list*
%AMRoundRect*
0 Rectangle with rounded corners*
0 $1 Rounding radius*
0 $2 $3 $4 $5 $6 $7 $8 $9 X,Y pos of 4 corners*
0 Add a 4 corners polygon primitive as box body*
4,1,4,$2,$3,$4,$5,$6,$7,$8,$9,$2,$3,0*
0 Add four circle primitives for the rounded corners*
1,1,$1+$1,$2,$3*
1,1,$1+$1,$4,$5*
1,1,$1+$1,$6,$7*
1,1,$1+$1,$8,$9*
0 Add four rect primitives between the rounded corners*
20,1,$1+$1,$2,$3,$4,$5,0*
20,1,$1+$1,$4,$5,$6,$7,0*
20,1,$1+$1,$6,$7,$8,$9,0*
20,1,$1+$1,$8,$9,$2,$3,0*%
G04 Aperture macros list end*
%ADD10C,0.010000*%
%ADD11C,0.999997*%
%ADD12O,2.004000X1.204000*%
%ADD13C,0.900000*%
%ADD14RoundRect,0.218750X-0.256250X0.218750X-0.256250X-0.218750X0.256250X-0.218750X0.256250X0.218750X0*%
%ADD15C,2.200000*%
%ADD16RoundRect,0.218750X0.256250X-0.218750X0.256250X0.218750X-0.256250X0.218750X-0.256250X-0.218750X0*%
%ADD17R,1.700000X1.700000*%
%ADD18O,1.700000X1.700000*%
%ADD19C,1.350000*%
%ADD20C,1.200000*%
%ADD21RoundRect,0.250000X0.350000X0.625000X-0.350000X0.625000X-0.350000X-0.625000X0.350000X-0.625000X0*%
%ADD22O,1.200000X1.750000*%
%ADD23RoundRect,0.102000X-0.800000X0.700000X-0.800000X-0.700000X0.800000X-0.700000X0.800000X0.700000X0*%
G04 APERTURE END LIST*
D10*
%TO.C,J5*%
X178393499Y-113721000D02*
X178425498Y-113722995D01*
X178456499Y-113726997D01*
X178487497Y-113732999D01*
X178517496Y-113740001D01*
X178547498Y-113748998D01*
X178577503Y-113759999D01*
X178606497Y-113772002D01*
X178634497Y-113785005D01*
X178662499Y-113800001D01*
X178689501Y-113816998D01*
X178715501Y-113835000D01*
X178740500Y-113854000D01*
X178763497Y-113873997D01*
X178786498Y-113895996D01*
X178808499Y-113918997D01*
X178828500Y-113942000D01*
X178847498Y-113967000D01*
X178865499Y-113992998D01*
X178882496Y-114020005D01*
X178897500Y-114047996D01*
X178910494Y-114076003D01*
X178922505Y-114104997D01*
X178933494Y-114135001D01*
X178942499Y-114164993D01*
X178949495Y-114195003D01*
X178955501Y-114225998D01*
X178959497Y-114256998D01*
X178961493Y-114289001D01*
X178962500Y-114319997D01*
X178961499Y-114351001D01*
X178959499Y-114383001D01*
X178955493Y-114413998D01*
X178949493Y-114445002D01*
X178942506Y-114475004D01*
X178933497Y-114505003D01*
X178922494Y-114535002D01*
X178910498Y-114563998D01*
X178897502Y-114591999D01*
X178882499Y-114619999D01*
X178865494Y-114646999D01*
X178847495Y-114673004D01*
X178828498Y-114698000D01*
X178808501Y-114720996D01*
X178786501Y-114744004D01*
X178763496Y-114766001D01*
X178740502Y-114786000D01*
X178715501Y-114805000D01*
X178689496Y-114822998D01*
X178662495Y-114840005D01*
X178634492Y-114855001D01*
X178606501Y-114868000D01*
X178577497Y-114880007D01*
X178547496Y-114890997D01*
X178517493Y-114900002D01*
X178487500Y-114906996D01*
X178456494Y-114913004D01*
X178425495Y-114917002D01*
X178393505Y-114919002D01*
X178362499Y-114920002D01*
X177762494Y-114920000D01*
X177162500Y-114919994D01*
X177131500Y-114918999D01*
X177099492Y-114916997D01*
X177068495Y-114912997D01*
X177037496Y-114907003D01*
X177007494Y-114900000D01*
X176977496Y-114891002D01*
X176947498Y-114879997D01*
X176918498Y-114867997D01*
X176890493Y-114855003D01*
X176862498Y-114839994D01*
X176835495Y-114823001D01*
X176809500Y-114804998D01*
X176784501Y-114785996D01*
X176761495Y-114766001D01*
X176738499Y-114743995D01*
X176716503Y-114721001D01*
X176696498Y-114698000D01*
X176677499Y-114672998D01*
X176659496Y-114647000D01*
X176642500Y-114620000D01*
X176627501Y-114592005D01*
X176614496Y-114564001D01*
X176602490Y-114535003D01*
X176591501Y-114504996D01*
X176582499Y-114474999D01*
X176575496Y-114444997D01*
X176569496Y-114414000D01*
X176565498Y-114382999D01*
X176563497Y-114351001D01*
X176562495Y-114320000D01*
X176563496Y-114288999D01*
X176565501Y-114257005D01*
X176569500Y-114226001D01*
X176575496Y-114195001D01*
X176582502Y-114165001D01*
X176591496Y-114134999D01*
X176602506Y-114105002D01*
X176614496Y-114076002D01*
X176627500Y-114048002D01*
X176642497Y-114019996D01*
X176659497Y-113993001D01*
X176677500Y-113966999D01*
X176696499Y-113941999D01*
X176716498Y-113919003D01*
X176738498Y-113896003D01*
X176761499Y-113874003D01*
X176784502Y-113854001D01*
X176809500Y-113834999D01*
X176835500Y-113817001D01*
X176862498Y-113799999D01*
X176890494Y-113784995D01*
X176918497Y-113771998D01*
X176947502Y-113760000D01*
X176977498Y-113749002D01*
X177007496Y-113739999D01*
X177037497Y-113733004D01*
X177068500Y-113727008D01*
X177099495Y-113723005D01*
X177131500Y-113720999D01*
X177162503Y-113720002D01*
X177762496Y-113719998D01*
X178362501Y-113719997D01*
X178393499Y-113721000D01*
G36*
X178393499Y-113721000D02*
G01*
X178425498Y-113722995D01*
X178456499Y-113726997D01*
X178487497Y-113732999D01*
X178517496Y-113740001D01*
X178547498Y-113748998D01*
X178577503Y-113759999D01*
X178606497Y-113772002D01*
X178634497Y-113785005D01*
X178662499Y-113800001D01*
X178689501Y-113816998D01*
X178715501Y-113835000D01*
X178740500Y-113854000D01*
X178763497Y-113873997D01*
X178786498Y-113895996D01*
X178808499Y-113918997D01*
X178828500Y-113942000D01*
X178847498Y-113967000D01*
X178865499Y-113992998D01*
X178882496Y-114020005D01*
X178897500Y-114047996D01*
X178910494Y-114076003D01*
X178922505Y-114104997D01*
X178933494Y-114135001D01*
X178942499Y-114164993D01*
X178949495Y-114195003D01*
X178955501Y-114225998D01*
X178959497Y-114256998D01*
X178961493Y-114289001D01*
X178962500Y-114319997D01*
X178961499Y-114351001D01*
X178959499Y-114383001D01*
X178955493Y-114413998D01*
X178949493Y-114445002D01*
X178942506Y-114475004D01*
X178933497Y-114505003D01*
X178922494Y-114535002D01*
X178910498Y-114563998D01*
X178897502Y-114591999D01*
X178882499Y-114619999D01*
X178865494Y-114646999D01*
X178847495Y-114673004D01*
X178828498Y-114698000D01*
X178808501Y-114720996D01*
X178786501Y-114744004D01*
X178763496Y-114766001D01*
X178740502Y-114786000D01*
X178715501Y-114805000D01*
X178689496Y-114822998D01*
X178662495Y-114840005D01*
X178634492Y-114855001D01*
X178606501Y-114868000D01*
X178577497Y-114880007D01*
X178547496Y-114890997D01*
X178517493Y-114900002D01*
X178487500Y-114906996D01*
X178456494Y-114913004D01*
X178425495Y-114917002D01*
X178393505Y-114919002D01*
X178362499Y-114920002D01*
X177762494Y-114920000D01*
X177162500Y-114919994D01*
X177131500Y-114918999D01*
X177099492Y-114916997D01*
X177068495Y-114912997D01*
X177037496Y-114907003D01*
X177007494Y-114900000D01*
X176977496Y-114891002D01*
X176947498Y-114879997D01*
X176918498Y-114867997D01*
X176890493Y-114855003D01*
X176862498Y-114839994D01*
X176835495Y-114823001D01*
X176809500Y-114804998D01*
X176784501Y-114785996D01*
X176761495Y-114766001D01*
X176738499Y-114743995D01*
X176716503Y-114721001D01*
X176696498Y-114698000D01*
X176677499Y-114672998D01*
X176659496Y-114647000D01*
X176642500Y-114620000D01*
X176627501Y-114592005D01*
X176614496Y-114564001D01*
X176602490Y-114535003D01*
X176591501Y-114504996D01*
X176582499Y-114474999D01*
X176575496Y-114444997D01*
X176569496Y-114414000D01*
X176565498Y-114382999D01*
X176563497Y-114351001D01*
X176562495Y-114320000D01*
X176563496Y-114288999D01*
X176565501Y-114257005D01*
X176569500Y-114226001D01*
X176575496Y-114195001D01*
X176582502Y-114165001D01*
X176591496Y-114134999D01*
X176602506Y-114105002D01*
X176614496Y-114076002D01*
X176627500Y-114048002D01*
X176642497Y-114019996D01*
X176659497Y-113993001D01*
X176677500Y-113966999D01*
X176696499Y-113941999D01*
X176716498Y-113919003D01*
X176738498Y-113896003D01*
X176761499Y-113874003D01*
X176784502Y-113854001D01*
X176809500Y-113834999D01*
X176835500Y-113817001D01*
X176862498Y-113799999D01*
X176890494Y-113784995D01*
X176918497Y-113771998D01*
X176947502Y-113760000D01*
X176977498Y-113749002D01*
X177007496Y-113739999D01*
X177037497Y-113733004D01*
X177068500Y-113727008D01*
X177099495Y-113723005D01*
X177131500Y-113720999D01*
X177162503Y-113720002D01*
X177762496Y-113719998D01*
X178362501Y-113719997D01*
X178393499Y-113721000D01*
G37*
X177762502Y-105080000D02*
X178362496Y-105080006D01*
X178393496Y-105081001D01*
X178425504Y-105083003D01*
X178456501Y-105087003D01*
X178487500Y-105092997D01*
X178517502Y-105100000D01*
X178547500Y-105108998D01*
X178577498Y-105120003D01*
X178606498Y-105132003D01*
X178634503Y-105144997D01*
X178662498Y-105160006D01*
X178689501Y-105176999D01*
X178715496Y-105195002D01*
X178740495Y-105214004D01*
X178763501Y-105233999D01*
X178786497Y-105256005D01*
X178808493Y-105278999D01*
X178828498Y-105302000D01*
X178847497Y-105327002D01*
X178865500Y-105353000D01*
X178882496Y-105380000D01*
X178897495Y-105407995D01*
X178910500Y-105435999D01*
X178922506Y-105464997D01*
X178933495Y-105495004D01*
X178942497Y-105525001D01*
X178949500Y-105555003D01*
X178955500Y-105586000D01*
X178959498Y-105617001D01*
X178961499Y-105648999D01*
X178962501Y-105680000D01*
X178961500Y-105711001D01*
X178959495Y-105742995D01*
X178955496Y-105773999D01*
X178949500Y-105804999D01*
X178942494Y-105834999D01*
X178933500Y-105865001D01*
X178922490Y-105894998D01*
X178910500Y-105923998D01*
X178897496Y-105951998D01*
X178882499Y-105980004D01*
X178865499Y-106006999D01*
X178847496Y-106033001D01*
X178828497Y-106058001D01*
X178808498Y-106080997D01*
X178786498Y-106103997D01*
X178763497Y-106125997D01*
X178740494Y-106145999D01*
X178715496Y-106165001D01*
X178689496Y-106182999D01*
X178662498Y-106200001D01*
X178634502Y-106215005D01*
X178606499Y-106228002D01*
X178577494Y-106240000D01*
X178547498Y-106250998D01*
X178517500Y-106260001D01*
X178487499Y-106266996D01*
X178456496Y-106272992D01*
X178425501Y-106276995D01*
X178393496Y-106279001D01*
X178362493Y-106279998D01*
X177762500Y-106280002D01*
X177162495Y-106280003D01*
X177131497Y-106279000D01*
X177099498Y-106277005D01*
X177068497Y-106273003D01*
X177037499Y-106267001D01*
X177007500Y-106259999D01*
X176977498Y-106251002D01*
X176947493Y-106240001D01*
X176918499Y-106227998D01*
X176890499Y-106214995D01*
X176862497Y-106199999D01*
X176835495Y-106183002D01*
X176809495Y-106165000D01*
X176784496Y-106146000D01*
X176761499Y-106126003D01*
X176738498Y-106104004D01*
X176716497Y-106081003D01*
X176696496Y-106058000D01*
X176677498Y-106033000D01*
X176659497Y-106007002D01*
X176642500Y-105979995D01*
X176627496Y-105952004D01*
X176614502Y-105923997D01*
X176602491Y-105895003D01*
X176591502Y-105864999D01*
X176582497Y-105835007D01*
X176575501Y-105804997D01*
X176569495Y-105774002D01*
X176565499Y-105743002D01*
X176563503Y-105710999D01*
X176562496Y-105680003D01*
X176563497Y-105648999D01*
X176565497Y-105616999D01*
X176569503Y-105586002D01*
X176575503Y-105554998D01*
X176582490Y-105524996D01*
X176591499Y-105494997D01*
X176602502Y-105464998D01*
X176614498Y-105436002D01*
X176627494Y-105408001D01*
X176642497Y-105380001D01*
X176659502Y-105353001D01*
X176677501Y-105326996D01*
X176696498Y-105302000D01*
X176716495Y-105279004D01*
X176738495Y-105255996D01*
X176761500Y-105233999D01*
X176784494Y-105214000D01*
X176809495Y-105195000D01*
X176835500Y-105177002D01*
X176862501Y-105159995D01*
X176890504Y-105144999D01*
X176918495Y-105132000D01*
X176947499Y-105119993D01*
X176977500Y-105109003D01*
X177007503Y-105099998D01*
X177037496Y-105093004D01*
X177068502Y-105086996D01*
X177099501Y-105082998D01*
X177131491Y-105080998D01*
X177162497Y-105079998D01*
X177762502Y-105080000D01*
G36*
X177762502Y-105080000D02*
G01*
X178362496Y-105080006D01*
X178393496Y-105081001D01*
X178425504Y-105083003D01*
X178456501Y-105087003D01*
X178487500Y-105092997D01*
X178517502Y-105100000D01*
X178547500Y-105108998D01*
X178577498Y-105120003D01*
X178606498Y-105132003D01*
X178634503Y-105144997D01*
X178662498Y-105160006D01*
X178689501Y-105176999D01*
X178715496Y-105195002D01*
X178740495Y-105214004D01*
X178763501Y-105233999D01*
X178786497Y-105256005D01*
X178808493Y-105278999D01*
X178828498Y-105302000D01*
X178847497Y-105327002D01*
X178865500Y-105353000D01*
X178882496Y-105380000D01*
X178897495Y-105407995D01*
X178910500Y-105435999D01*
X178922506Y-105464997D01*
X178933495Y-105495004D01*
X178942497Y-105525001D01*
X178949500Y-105555003D01*
X178955500Y-105586000D01*
X178959498Y-105617001D01*
X178961499Y-105648999D01*
X178962501Y-105680000D01*
X178961500Y-105711001D01*
X178959495Y-105742995D01*
X178955496Y-105773999D01*
X178949500Y-105804999D01*
X178942494Y-105834999D01*
X178933500Y-105865001D01*
X178922490Y-105894998D01*
X178910500Y-105923998D01*
X178897496Y-105951998D01*
X178882499Y-105980004D01*
X178865499Y-106006999D01*
X178847496Y-106033001D01*
X178828497Y-106058001D01*
X178808498Y-106080997D01*
X178786498Y-106103997D01*
X178763497Y-106125997D01*
X178740494Y-106145999D01*
X178715496Y-106165001D01*
X178689496Y-106182999D01*
X178662498Y-106200001D01*
X178634502Y-106215005D01*
X178606499Y-106228002D01*
X178577494Y-106240000D01*
X178547498Y-106250998D01*
X178517500Y-106260001D01*
X178487499Y-106266996D01*
X178456496Y-106272992D01*
X178425501Y-106276995D01*
X178393496Y-106279001D01*
X178362493Y-106279998D01*
X177762500Y-106280002D01*
X177162495Y-106280003D01*
X177131497Y-106279000D01*
X177099498Y-106277005D01*
X177068497Y-106273003D01*
X177037499Y-106267001D01*
X177007500Y-106259999D01*
X176977498Y-106251002D01*
X176947493Y-106240001D01*
X176918499Y-106227998D01*
X176890499Y-106214995D01*
X176862497Y-106199999D01*
X176835495Y-106183002D01*
X176809495Y-106165000D01*
X176784496Y-106146000D01*
X176761499Y-106126003D01*
X176738498Y-106104004D01*
X176716497Y-106081003D01*
X176696496Y-106058000D01*
X176677498Y-106033000D01*
X176659497Y-106007002D01*
X176642500Y-105979995D01*
X176627496Y-105952004D01*
X176614502Y-105923997D01*
X176602491Y-105895003D01*
X176591502Y-105864999D01*
X176582497Y-105835007D01*
X176575501Y-105804997D01*
X176569495Y-105774002D01*
X176565499Y-105743002D01*
X176563503Y-105710999D01*
X176562496Y-105680003D01*
X176563497Y-105648999D01*
X176565497Y-105616999D01*
X176569503Y-105586002D01*
X176575503Y-105554998D01*
X176582490Y-105524996D01*
X176591499Y-105494997D01*
X176602502Y-105464998D01*
X176614498Y-105436002D01*
X176627494Y-105408001D01*
X176642497Y-105380001D01*
X176659502Y-105353001D01*
X176677501Y-105326996D01*
X176696498Y-105302000D01*
X176716495Y-105279004D01*
X176738495Y-105255996D01*
X176761500Y-105233999D01*
X176784494Y-105214000D01*
X176809495Y-105195000D01*
X176835500Y-105177002D01*
X176862501Y-105159995D01*
X176890504Y-105144999D01*
X176918495Y-105132000D01*
X176947499Y-105119993D01*
X176977500Y-105109003D01*
X177007503Y-105099998D01*
X177037496Y-105093004D01*
X177068502Y-105086996D01*
X177099501Y-105082998D01*
X177131491Y-105080998D01*
X177162497Y-105079998D01*
X177762502Y-105080000D01*
G37*
%TD*%
D11*
%TO.C,SD1*%
X125000000Y-83500000D03*
X132975600Y-83500000D03*
%TD*%
D12*
%TO.C,J5*%
X173762499Y-114320003D03*
X173762493Y-105680003D03*
%TD*%
D13*
%TO.C,SW3*%
X163500000Y-136000000D03*
X166500000Y-136000000D03*
%TD*%
D14*
%TO.C,LED3*%
X175500000Y-99425000D03*
X175500000Y-101000000D03*
%TD*%
D15*
%TO.C,H2*%
X94000000Y-135000000D03*
%TD*%
D16*
%TO.C,LED1*%
X173500000Y-117787500D03*
X173500000Y-116212500D03*
%TD*%
D15*
%TO.C,H1*%
X177000000Y-82000000D03*
%TD*%
%TO.C,H3*%
X93500000Y-81500000D03*
%TD*%
D17*
%TO.C,J4*%
X144500000Y-122520000D03*
D18*
X144500000Y-119980000D03*
X144500000Y-117440000D03*
X144500000Y-114900000D03*
X144500000Y-112360000D03*
X144500000Y-109820000D03*
X144500000Y-107280000D03*
X144500000Y-104740000D03*
X144500000Y-102200000D03*
X144500000Y-99660000D03*
X144500000Y-97120000D03*
X144500000Y-94580000D03*
X144500000Y-92040000D03*
X144500000Y-89500000D03*
%TD*%
D14*
%TO.C,LED2*%
X173787500Y-99425000D03*
X173787500Y-101000000D03*
%TD*%
D15*
%TO.C,H4*%
X177000000Y-134500000D03*
%TD*%
D19*
%TO.C,U7*%
X133359100Y-111187900D03*
X133406052Y-105792324D03*
D20*
X135640970Y-105812152D03*
D19*
X135594018Y-111207728D03*
%TD*%
D21*
%TO.C,J3*%
X132500000Y-132500000D03*
D22*
X130500000Y-132500000D03*
X128500000Y-132500000D03*
X126500000Y-132500000D03*
%TD*%
D23*
%TO.C,SW6*%
X170400000Y-127000000D03*
X177600000Y-127000000D03*
X170400000Y-124000000D03*
X177600000Y-124000000D03*
%TD*%
%TO.C,SW5*%
X171105000Y-111519400D03*
X178305000Y-111519400D03*
X171105000Y-108519400D03*
X178305000Y-108519400D03*
%TD*%
%TO.C,SW4*%
X170560000Y-94769400D03*
X177760000Y-94769400D03*
X170560000Y-91769400D03*
X177760000Y-91769400D03*
%TD*%
M02*
