%TF.GenerationSoftware,KiCad,Pcbnew,8.0.7*%
%TF.CreationDate,2025-04-23T11:54:05+05:30*%
%TF.ProjectId,schem,73636865-6d2e-46b6-9963-61645f706362,rev?*%
%TF.SameCoordinates,Original*%
%TF.FileFunction,Legend,Top*%
%TF.FilePolarity,Positive*%
%FSLAX46Y46*%
G04 Gerber Fmt 4.6, Leading zero omitted, Abs format (unit mm)*
G04 Created by KiCad (PCBNEW 8.0.7) date 2025-04-23 11:54:05*
%MOMM*%
%LPD*%
G01*
G04 APERTURE LIST*
%ADD10C,0.150000*%
%ADD11C,0.120000*%
%ADD12C,0.200000*%
%ADD13C,0.127000*%
G04 APERTURE END LIST*
D10*
X93238095Y-132704819D02*
X93238095Y-131704819D01*
X93238095Y-132181009D02*
X93809523Y-132181009D01*
X93809523Y-132704819D02*
X93809523Y-131704819D01*
X94238095Y-131800057D02*
X94285714Y-131752438D01*
X94285714Y-131752438D02*
X94380952Y-131704819D01*
X94380952Y-131704819D02*
X94619047Y-131704819D01*
X94619047Y-131704819D02*
X94714285Y-131752438D01*
X94714285Y-131752438D02*
X94761904Y-131800057D01*
X94761904Y-131800057D02*
X94809523Y-131895295D01*
X94809523Y-131895295D02*
X94809523Y-131990533D01*
X94809523Y-131990533D02*
X94761904Y-132133390D01*
X94761904Y-132133390D02*
X94190476Y-132704819D01*
X94190476Y-132704819D02*
X94809523Y-132704819D01*
X172524821Y-118119041D02*
X172524821Y-118595231D01*
X172524821Y-118595231D02*
X171524821Y-118595231D01*
X172001011Y-117785707D02*
X172001011Y-117452374D01*
X172524821Y-117309517D02*
X172524821Y-117785707D01*
X172524821Y-117785707D02*
X171524821Y-117785707D01*
X171524821Y-117785707D02*
X171524821Y-117309517D01*
X172524821Y-116880945D02*
X171524821Y-116880945D01*
X171524821Y-116880945D02*
X171524821Y-116642850D01*
X171524821Y-116642850D02*
X171572440Y-116499993D01*
X171572440Y-116499993D02*
X171667678Y-116404755D01*
X171667678Y-116404755D02*
X171762916Y-116357136D01*
X171762916Y-116357136D02*
X171953392Y-116309517D01*
X171953392Y-116309517D02*
X172096249Y-116309517D01*
X172096249Y-116309517D02*
X172286725Y-116357136D01*
X172286725Y-116357136D02*
X172381963Y-116404755D01*
X172381963Y-116404755D02*
X172477202Y-116499993D01*
X172477202Y-116499993D02*
X172524821Y-116642850D01*
X172524821Y-116642850D02*
X172524821Y-116880945D01*
X172524821Y-115357136D02*
X172524821Y-115928564D01*
X172524821Y-115642850D02*
X171524821Y-115642850D01*
X171524821Y-115642850D02*
X171667678Y-115738088D01*
X171667678Y-115738088D02*
X171762916Y-115833326D01*
X171762916Y-115833326D02*
X171810535Y-115928564D01*
X176238095Y-79704819D02*
X176238095Y-78704819D01*
X176238095Y-79181009D02*
X176809523Y-79181009D01*
X176809523Y-79704819D02*
X176809523Y-78704819D01*
X177809523Y-79704819D02*
X177238095Y-79704819D01*
X177523809Y-79704819D02*
X177523809Y-78704819D01*
X177523809Y-78704819D02*
X177428571Y-78847676D01*
X177428571Y-78847676D02*
X177333333Y-78942914D01*
X177333333Y-78942914D02*
X177238095Y-78990533D01*
X92738095Y-79204819D02*
X92738095Y-78204819D01*
X92738095Y-78681009D02*
X93309523Y-78681009D01*
X93309523Y-79204819D02*
X93309523Y-78204819D01*
X93690476Y-78204819D02*
X94309523Y-78204819D01*
X94309523Y-78204819D02*
X93976190Y-78585771D01*
X93976190Y-78585771D02*
X94119047Y-78585771D01*
X94119047Y-78585771D02*
X94214285Y-78633390D01*
X94214285Y-78633390D02*
X94261904Y-78681009D01*
X94261904Y-78681009D02*
X94309523Y-78776247D01*
X94309523Y-78776247D02*
X94309523Y-79014342D01*
X94309523Y-79014342D02*
X94261904Y-79109580D01*
X94261904Y-79109580D02*
X94214285Y-79157200D01*
X94214285Y-79157200D02*
X94119047Y-79204819D01*
X94119047Y-79204819D02*
X93833333Y-79204819D01*
X93833333Y-79204819D02*
X93738095Y-79157200D01*
X93738095Y-79157200D02*
X93690476Y-79109580D01*
X144166649Y-124744821D02*
X144166649Y-125459106D01*
X144166649Y-125459106D02*
X144119030Y-125601963D01*
X144119030Y-125601963D02*
X144023792Y-125697202D01*
X144023792Y-125697202D02*
X143880935Y-125744821D01*
X143880935Y-125744821D02*
X143785697Y-125744821D01*
X145071411Y-125078154D02*
X145071411Y-125744821D01*
X144833316Y-124697202D02*
X144595221Y-125411487D01*
X144595221Y-125411487D02*
X145214268Y-125411487D01*
X176238095Y-132204819D02*
X176238095Y-131204819D01*
X176238095Y-131681009D02*
X176809523Y-131681009D01*
X176809523Y-132204819D02*
X176809523Y-131204819D01*
X177714285Y-131538152D02*
X177714285Y-132204819D01*
X177476190Y-131157200D02*
X177238095Y-131871485D01*
X177238095Y-131871485D02*
X177857142Y-131871485D01*
X175927837Y-96805534D02*
X176041440Y-96845618D01*
X176041440Y-96845618D02*
X176231887Y-96848942D01*
X176231887Y-96848942D02*
X176308731Y-96812183D01*
X176308731Y-96812183D02*
X176347485Y-96774758D01*
X176347485Y-96774758D02*
X176386905Y-96699244D01*
X176386905Y-96699244D02*
X176388234Y-96623065D01*
X176388234Y-96623065D02*
X176351475Y-96546222D01*
X176351475Y-96546222D02*
X176314050Y-96507467D01*
X176314050Y-96507467D02*
X176238536Y-96468048D01*
X176238536Y-96468048D02*
X176086843Y-96427299D01*
X176086843Y-96427299D02*
X176011329Y-96387880D01*
X176011329Y-96387880D02*
X175973905Y-96349126D01*
X175973905Y-96349126D02*
X175937145Y-96272282D01*
X175937145Y-96272282D02*
X175938474Y-96196103D01*
X175938474Y-96196103D02*
X175977894Y-96120589D01*
X175977894Y-96120589D02*
X176016648Y-96083165D01*
X176016648Y-96083165D02*
X176093492Y-96046405D01*
X176093492Y-96046405D02*
X176283939Y-96049729D01*
X176283939Y-96049729D02*
X176397542Y-96089813D01*
X176664833Y-96056378D02*
X176841319Y-96859580D01*
X176841319Y-96859580D02*
X177003649Y-96290898D01*
X177003649Y-96290898D02*
X177146034Y-96864899D01*
X177146034Y-96864899D02*
X177350443Y-96068345D01*
X177993310Y-96346274D02*
X177984002Y-96879526D01*
X177808182Y-96038234D02*
X177607762Y-96606251D01*
X177607762Y-96606251D02*
X178102924Y-96614894D01*
D11*
%TO.C,LED3*%
X174765000Y-98727500D02*
X174765000Y-101012500D01*
X176235000Y-98727500D02*
X174765000Y-98727500D01*
X176235000Y-101012500D02*
X176235000Y-98727500D01*
%TO.C,LED1*%
X172765000Y-116200000D02*
X172765000Y-118485000D01*
X172765000Y-118485000D02*
X174235000Y-118485000D01*
X174235000Y-118485000D02*
X174235000Y-116200000D01*
%TO.C,J4*%
X143170000Y-121250000D02*
X143170000Y-88170000D01*
X143170000Y-123850000D02*
X143170000Y-122520000D01*
X144500000Y-123850000D02*
X143170000Y-123850000D01*
X145830000Y-88170000D02*
X143170000Y-88170000D01*
X145830000Y-121250000D02*
X143170000Y-121250000D01*
X145830000Y-121250000D02*
X145830000Y-88170000D01*
%TO.C,LED2*%
X173052500Y-98727500D02*
X173052500Y-101012500D01*
X174522500Y-98727500D02*
X173052500Y-98727500D01*
X174522500Y-101012500D02*
X174522500Y-98727500D01*
D12*
%TO.C,SW6*%
X177700000Y-122800000D02*
G75*
G02*
X177500000Y-122800000I-100000J0D01*
G01*
X177500000Y-122800000D02*
G75*
G02*
X177700000Y-122800000I100000J0D01*
G01*
D13*
X176250000Y-123250000D02*
X176250000Y-127750000D01*
X176250000Y-123250000D02*
X171750000Y-123250000D01*
X171750000Y-127750000D02*
X176250000Y-127750000D01*
X171750000Y-127750000D02*
X171750000Y-123250000D01*
D12*
%TO.C,SW5*%
X178405000Y-107319400D02*
G75*
G02*
X178205000Y-107319400I-100000J0D01*
G01*
X178205000Y-107319400D02*
G75*
G02*
X178405000Y-107319400I100000J0D01*
G01*
D13*
X176955000Y-107769400D02*
X176955000Y-112269400D01*
X176955000Y-107769400D02*
X172455000Y-107769400D01*
X172455000Y-112269400D02*
X176955000Y-112269400D01*
X172455000Y-112269400D02*
X172455000Y-107769400D01*
D12*
%TO.C,SW4*%
X177860000Y-90569400D02*
G75*
G02*
X177660000Y-90569400I-100000J0D01*
G01*
X177660000Y-90569400D02*
G75*
G02*
X177860000Y-90569400I100000J0D01*
G01*
D13*
X176410000Y-91019400D02*
X176410000Y-95519400D01*
X176410000Y-91019400D02*
X171910000Y-91019400D01*
X171910000Y-95519400D02*
X176410000Y-95519400D01*
X171910000Y-95519400D02*
X171910000Y-91019400D01*
%TD*%
M02*
