M48
; DRILL file {KiCad 8.0.7} date 2025-04-23T11:54:09+0530
; FORMAT={-:-/ absolute / inch / decimal}
; #@! TF.CreationDate,2025-04-23T11:54:09+05:30
; #@! TF.GenerationSoftware,Kicad,Pcbnew,8.0.7
; #@! TF.FileFunction,Plated,1,2,PTH
FMAT,2
INCH
; #@! TA.AperFunction,Plated,PTH,ViaDrill
T1C0.0157
; #@! TA.AperFunction,Plated,PTH,ComponentDrill
T2C0.0236
; #@! TA.AperFunction,Plated,PTH,ComponentDrill
T3C0.0276
; #@! TA.AperFunction,Plated,PTH,ComponentDrill
T4C0.0295
; #@! TA.AperFunction,Plated,PTH,ComponentDrill
T5C0.0354
; #@! TA.AperFunction,Plated,PTH,ComponentDrill
T6C0.0394
%
G90
G05
T1
X3.6811Y-5.0787
X3.7795Y-4.2323
X3.7815Y-4.41
X3.8386Y-3.4449
X3.8386Y-5.2165
X3.937Y-3.2087
X3.9567Y-4.3701
X3.9961Y-5.3346
X4.0054Y-3.7415
X4.0354Y-4.1142
X4.0551Y-3.5236
X4.0593Y-4.5238
X4.0675Y-5.042
X4.0862Y-3.9493
X4.1043Y-4.568
X4.1411Y-5.2
X4.1581Y-4.7765
X4.2232Y-4.6601
X4.252Y-4.4685
X4.2717Y-4.9409
X4.2934Y-3.7218
X4.3128Y-5.0972
X4.3265Y-3.5625
X4.3307Y-4.2913
X4.3821Y-4.5238
X4.3915Y-4.3844
X4.4094Y-5.2362
X4.4271Y-4.568
X4.4291Y-3.189
X4.4685Y-3.7402
X4.4685Y-4.6457
X4.5669Y-4.9606
X4.5886Y-4.2311
X4.685Y-4.1339
X4.7047Y-5.2559
X4.7244Y-3.2874
X4.7244Y-4.3701
X4.7441Y-3.6811
X4.8228Y-5.1969
X4.8622Y-3.878
X5.0Y-4.0945
X5.0942Y-4.8639
X5.1986Y-5.1504
X5.3346Y-4.6457
X5.3795Y-5.0972
X5.3937Y-5.2559
X5.4134Y-3.8976
X5.4331Y-4.0945
X5.4331Y-4.6654
X5.4921Y-5.0787
X5.4921Y-5.315
X5.5118Y-3.2874
X5.5118Y-3.6811
X5.5356Y-4.4974
X5.5512Y-4.6654
X5.5512Y-5.1181
X5.5906Y-4.1142
X5.6067Y-4.2616
X5.6102Y-4.8228
X5.6299Y-5.0394
X5.7185Y-5.3558
X5.7677Y-3.2087
X5.7677Y-4.7835
X5.7677Y-4.9803
X5.8268Y-5.315
X5.8416Y-4.5949
X5.8465Y-5.3937
X5.8661Y-4.0551
X5.8858Y-3.622
X5.9252Y-4.8228
X5.9646Y-4.3898
X6.0236Y-5.0
X6.0413Y-4.568
X6.1024Y-5.0197
X6.1417Y-3.2087
X6.1417Y-3.6614
X6.1417Y-5.2953
X6.1811Y-5.0394
X6.2008Y-4.685
X6.2028Y-3.4205
X6.2205Y-5.1969
X6.2205Y-5.1969
X6.2598Y-4.4882
X6.2598Y-4.9803
X6.2598Y-5.0984
X6.2795Y-5.2756
X6.2795Y-5.374
X6.3334Y-3.7099
X6.3583Y-4.4291
X6.4173Y-3.3465
X6.4223Y-3.7475
X6.4831Y-4.7047
X6.4911Y-3.9567
X6.5015Y-3.7784
X6.5061Y-4.8031
X6.5174Y-3.622
X6.5551Y-4.1535
X6.5551Y-4.3898
X6.5748Y-5.0
X6.6339Y-4.8425
X6.6339Y-5.0591
X6.6929Y-4.4882
X6.6929Y-4.4882
X6.6929Y-5.2756
X6.7126Y-5.374
X6.715Y-3.5433
X6.7323Y-5.2165
X6.752Y-4.6457
X6.8307Y-4.0748
X6.8504Y-5.1969
X6.9291Y-5.1181
X6.9882Y-4.5866
X7.0079Y-4.0748
T2
X6.9985Y-4.1606
X6.9985Y-4.5008
T3
X5.3402Y-4.1658
T4
X4.9803Y-5.2165
X5.0591Y-5.2165
X5.1378Y-5.2165
X5.2165Y-5.2165
T5
X5.2504Y-4.3775
X5.2522Y-4.1651
X5.3383Y-4.3783
T6
X5.689Y-3.5236
X5.689Y-3.6236
X5.689Y-3.7236
X5.689Y-3.8236
X5.689Y-3.9236
X5.689Y-4.0236
X5.689Y-4.1236
X5.689Y-4.2236
X5.689Y-4.3236
X5.689Y-4.4236
X5.689Y-4.5236
X5.689Y-4.6236
X5.689Y-4.7236
X5.689Y-4.8236
T2
G00X6.8568Y-4.1606
M15
G01X6.8253Y-4.1606
M16
G05
G00X6.8568Y-4.5008
M15
G01X6.8253Y-4.5008
M16
G05
M30
